<svg width="22" height="22" viewBox="0 0 22 22" fill="none" xmlns="http://www.w3.org/2000/svg">
<path d="M17.1393 9.72093C16.7198 9.72093 16.3718 9.37302 16.3718 8.95349V6.90698C16.3718 3.68372 15.4611 1.53488 10.9998 1.53488C6.53835 1.53488 5.62766 3.68372 5.62766 6.90698V8.95349C5.62766 9.37302 5.27975 9.72093 4.86022 9.72093C4.44068 9.72093 4.09277 9.37302 4.09277 8.95349V6.90698C4.09277 3.93953 4.80905 0 10.9998 0C17.1904 0 17.9067 3.93953 17.9067 6.90698V8.95349C17.9067 9.37302 17.5588 9.72093 17.1393 9.72093Z" fill="#D75B36"/>
<path d="M11.0004 18.4183C9.16876 18.4183 7.6748 16.9243 7.6748 15.0927C7.6748 13.261 9.16876 11.7671 11.0004 11.7671C12.832 11.7671 14.326 13.261 14.326 15.0927C14.326 16.9243 12.832 18.4183 11.0004 18.4183ZM11.0004 13.302C10.0181 13.302 9.20969 14.1103 9.20969 15.0927C9.20969 16.075 10.0181 16.8834 11.0004 16.8834C11.9827 16.8834 12.7911 16.075 12.7911 15.0927C12.7911 14.1103 11.9827 13.302 11.0004 13.302Z" fill="#D75B36"/>
<path d="M16.1163 22H5.88372C1.37116 22 0 20.6288 0 16.1163V14.0698C0 9.5572 1.37116 8.18604 5.88372 8.18604H16.1163C20.6288 8.18604 22 9.5572 22 14.0698V16.1163C22 20.6288 20.6288 22 16.1163 22ZM5.88372 9.72092C2.22047 9.72092 1.53488 10.4167 1.53488 14.0698V16.1163C1.53488 19.7693 2.22047 20.4651 5.88372 20.4651H16.1163C19.7795 20.4651 20.4651 19.7693 20.4651 16.1163V14.0698C20.4651 10.4167 19.7795 9.72092 16.1163 9.72092H5.88372Z" fill="#D75B36"/>
</svg>
